<svg id="Capa_1" data-name="Capa 1" xmlns="http://www.w3.org/2000/svg" height="22" width="20" viewBox="0 0 28 25">
<defs><style>.cls-1{fill:white;}</style></defs>
<path class="cls-1" d="M14,21.73a10.71,10.71,0,0,1-7.47-3C4.69,17,2.92,15.17,1.14,13.38c-.65-.65-.66-1.11,0-1.74C2.93,9.81,4.72,8,6.6,6.19a10.85,10.85,0,0,1,14.92.1c1.81,1.73,3.56,3.53,5.32,5.3.68.68.68,1.13,0,1.8-1.78,1.79-3.55,3.6-5.38,5.35A10.65,10.65,0,0,1,14,21.73Zm10.83-9.28c-1.54-1.55-3.06-3.12-4.64-4.63a8.82,8.82,0,0,0-12.41,0c-1.37,1.35-2.71,2.72-4.07,4.07-.18.18-.35.38-.48.52,1.67,1.7,3.24,3.43,5,5a8.74,8.74,0,0,0,11.64,0C21.54,15.92,23.12,14.17,24.81,12.45Z"/><path class="cls-1" d="M14,8.42A4.08,4.08,0,1,1,9.92,12.5,4,4,0,0,1,14,8.42Zm2.1,4.06a2.16,2.16,0,0,0-2.14-2.06,2.16,2.16,0,0,0-2,2.1,2.17,2.17,0,0,0,2.14,2.06A2.16,2.16,0,0,0,16.08,12.48Z"/></svg>